<svg id="Layer_1" height="512" viewBox="0 0 512 512" width="512" xmlns="http://www.w3.org/2000/svg" xmlns:xlink="http://www.w3.org/1999/xlink" data-name="Layer 1"><linearGradient id="GradientFill_1" gradientUnits="userSpaceOnUse" x1="12.582" x2="499.458" y1="255.999" y2="255.999"><stop offset="0" stop-color="#58c8df"/><stop offset="1" stop-color="#53a7dd"/></linearGradient><path d="m366.793 429.361-17.833-17.814q4.6-4.346 8.917-8.9l17.833 17.82-8.917 8.9zm22.457 37.474 23.919-23.924-21.088-21.06-23.919 23.924zm32.789-15.022 31.373 31.341a16.882 16.882 0 0 1 -11.983 28.846 16.753 16.753 0 0 1 -11.936-4.92l-31.373-31.347zm-265.376-241.5a139.237 139.237 0 0 1 218.859 168.342h104.64a19.338 19.338 0 0 0 19.3-19.3v-241.047h-486.88v241.051a19.337 19.337 0 0 0 19.3 19.3h102.749a139.277 139.277 0 0 1 22.032-168.341zm8.87 8.9a126.641 126.641 0 1 0 89.543-37.087 126.244 126.244 0 0 0 -89.543 37.087zm137.667-160.056a6.3 6.3 0 0 1 0-12.592h145.07a6.3 6.3 0 0 1 0 12.592zm-157.008 0a6.3 6.3 0 0 1 0-12.592h.755a6.3 6.3 0 1 1 0 12.592zm-41.234 0a6.3 6.3 0 0 1 0-12.592h.755a6.3 6.3 0 1 1 0 12.592zm-41.186 0a6.3 6.3 0 1 1 0-12.592h.755a6.3 6.3 0 0 1 0 12.592zm-51.19 46.559h486.876v-86.416a19.338 19.338 0 0 0 -19.296-19.3h-448.284a19.337 19.337 0 0 0 -19.3 19.3v86.42zm276.038 165.613a6.286 6.286 0 1 1 -1.415-12.492l33.166-3.9a6.288 6.288 0 0 1 6.935 5.534l3.915 33.157a6.327 6.327 0 0 1 -5.566 6.959 6.256 6.256 0 0 1 -6.936-5.53l-2.17-18.479-42.6 52.645a6.278 6.278 0 0 1 -7.879 2.011l-37.318-18.211-38.686 47.291a6.282 6.282 0 0 1 -9.718-7.964l41.8-51.15a6.317 6.317 0 0 1 7.737-1.623l37.224 18.159 39.2-48.485z" fill="url(#GradientFill_1)" fill-rule="evenodd"/></svg>