<svg clip-rule="evenodd" fill-rule="evenodd" height="2.833in" image-rendering="optimizeQuality" shape-rendering="geometricPrecision" text-rendering="geometricPrecision" viewBox="0 0 2.83333 2.83333" width="2.833in" xmlns="http://www.w3.org/2000/svg" xmlns:xlink="http://www.w3.org/1999/xlink"><linearGradient id="id0" gradientUnits="userSpaceOnUse" x1="0" x2="2.833" y1="1.417" y2="1.417"><stop offset="0" stop-color="#26a9e0"/><stop offset=".0901961" stop-color="#2297d3"/><stop offset=".231373" stop-color="#1e84c6"/><stop offset=".368627" stop-color="#1c79be"/><stop offset=".521569" stop-color="#1b75bb"/><stop offset=".960784" stop-color="#2b388f"/><stop offset="1" stop-color="#2b388f"/></linearGradient><circle cx="1.417" cy="1.417" fill="url(#id0)" r="1.417"/><g id="Layer_x0020_1" fill="#fff"><path d="m1.68967 2.26991h-.768717c-.0602323 0-.109224-.0490079-.109224-.109236l-.00000394-1.26151c0-.0602126.0489961-.109224.109224-.109224h.58c-.0321457.0460039-.0520669.101154-.0549961.160705h-.453437c-.0110709 0-.0200827.00901181-.0200827.0200827v1.11839c0 .0110787.00900394.0200827.0200827.0200827h.625591c.0110709 0 .0200669-.00900394.0200669-.0200827l.00000394-.837618c.0356614.0144606.0746142.0224449.115406.0224449.0153976 0 .0305315-.00114961.0453268-.00334252v.890087c-.00001181.0602205-.0490118.109228-.10924.109228z"/><path d="m1.08041.749945v-.114646c0-.0396339.032248-.0718819.0718937-.0718819l.304583.00000787c.0404291 0 .0733268.0328976.0733268.0733228v.113197h-.449803z"/><path d="m1.53188 2.04228h-.453134c-.0217205 0-.0393858-.0176693-.0393858-.0393898v-.140594c0-.0217047.0176654-.0393858.0393858-.0393858l.453134.00000394c.0217047 0 .0393858.0176693.0393858.0393858v.140598c0 .0217047-.0176772.0393819-.0393858.0393819z"/><path d="m1.53188 1.7439h-.453134c-.0217205 0-.0393858-.0176693-.0393858-.0393898v-.140594c0-.0217047.0176654-.0393898.0393858-.0393898h.453134c.0217047 0 .0393858.0176693.0393858.0393898v.140594c0 .0217087-.0176772.0393898-.0393858.0393898z"/><path d="m1.53188 1.44549h-.453134c-.0217205 0-.0393858-.0176654-.0393858-.0393858v-.140587c0-.0217047.0176654-.0393701.0393858-.0393701h.453134c.0217047 0 .0393858.0176654.0393858.0393701v.140587c0 .0217205-.0176772.0393858-.0393858.0393858z"/><path d="m1.75358 1.23394c-.147791 0-.268016-.120228-.268016-.268004s.120224-.268.268016-.268c.147795 0 .26802.120224.26802.268s-.12024.268004-.26802.268004zm-.0521417-.0979606c-.00268898 0-.00540157-.00061417-.00793701-.00188976-.00747244-.00376772-.0112992-.0122835-.00912598-.020374l.0304724-.113744-.0424724-.0076378c-.00615354-.00110236-.0112598-.00538189-.0134449-.0112283-.00218898-.00584252-.00112205-.0124291.00280709-.0172795l.13013-.16135c.00516142-.00639764.0140276-.00840551.0214488-.00484252.00740157.00356299.011374.0117559.00958268.0197795l-.0253661.114209.0365157.00496063c.00629921.00085039.0116457.00502362.0140315.0109213.00238189.0058937.00139764.0126102-.00255512.0175906l-.130201.164185c-.0034685.00434252-.00862992.00670079-.0138858.00670079z"/></g></svg>