<svg height="512pt" viewBox="0 0 512.00022 512" width="512pt" xmlns="http://www.w3.org/2000/svg"><path d="m167.339844 232.902344 265.519531 265.515625c18.109375 18.109375 47.460937 18.105469 65.5625 0 3.832031-3.828125 6.855469-8.164063 9.0625-12.789063l-296.4375-296.4375zm287.375 243.664062c-6.035156-6.03125-6.035156-15.816406 0-21.851562s15.820312-6.035156 21.855468 0c6.035157 6.035156 6.035157 15.820312 0 21.851562-6.035156 6.035156-15.820312 6.035156-21.855468 0zm0 0" fill="#9cb5bb"/><path d="m476.570312 476.570312c6.035157-6.035156 6.035157-15.820312-.003906-21.855468-6.035156-6.035156-15.816406-6.035156-21.851562 0-6.03125 6.03125-6.035156 15.804687-.011719 21.839844l-30.851563-30.851563-212.804687-256.507813 21.855469-21.855468 265.519531 265.519531c14.277344 14.277344 17.292969 35.535156 9.058594 52.769531-17.222657 8.226563-38.464844 5.21875-52.742188-9.039062 6.039063 6.011718 15.804688 6.007812 21.832031-.019532zm0 0" fill="#b9d8dd"/><path d="m248.25 226.648438 197.242188 197.242187c-4.5625 2.203125-8.84375 5.183594-12.628907 8.96875-3.878906 3.878906-6.921875 8.277344-9.136719 12.96875l-197.328124-197.328125zm0 0" fill="#d6faff"/><path d="m367.828125 133.246094 69.160156 18.191406 66.003907-66.003906c12.011718-12.011719 12.011718-31.664063 0-43.675782l-21.839844-21.835937zm0 0" fill="#464e54"/><path d="m470.242188 9.007812 10.910156 10.914063c12.011718 12.007813 12.011718 31.664063 0 43.675781l-91.488282 91.488282-29.101562-80.074219 66.003906-66.003907c12.011719-12.011718 31.664063-12.011718 43.675782 0zm0 0" fill="#637176"/><path d="m109.609375.796875c36.023437-4.101563 73.90625 8.023437 101.609375 35.578125.152344.152344-32.960938 62.207031-32.960938 62.207031zm0 0" fill="#809399"/><path d="m109.609375.796875 83.21875 83.21875-21.851563 21.851563-87.410156-87.410157c-4.128906-4.125-2.351562-11.125 3.222656-12.863281 7.46875-2.324219 15.109376-3.921875 22.820313-4.796875zm0 0" fill="#637176"/><path d="m112.699219 178.710938-94.449219-94.449219c-4.144531-4.144531-11.171875-2.332031-12.878906 3.277343-12.898438 42.367188-2.574219 90.246094 31.019531 123.664063zm0 0" fill="#809399"/><path d="m36.390625 211.203125c24.140625 24.140625 55.839844 35.460937 87.46875 36.257813 15.304687.386718 61.15625 3.101562 61.15625 3.101562l65.5625-65.558594s-3.117187-46.195312-3.558594-61.617187c-.910156-31.414063-11.96875-62.929688-35.808593-87.003907zm0 0" fill="#9cb5bb"/><path d="m134.320312 156.625 16.390626-5.464844 5.460937-16.386718 16.390625-16.390626c3.015625-3.019531 7.910156-3.019531 10.925781 0l10.929688 10.925782c3.015625 3.015625 3.015625 7.910156 0 10.925781l-16.390625 16.390625-16.390625 5.464844-5.464844 16.390625-16.390625 16.390625c-3.015625 3.015625-7.90625 3.015625-10.925781 0l-10.925781-10.929688c-3.019532-3.015625-3.019532-7.910156 0-10.925781zm0 0" fill="#b9d8dd"/><path d="m156.171875 178.480469-21.851563-21.851563 21.851563-21.855468 21.855469 21.855468zm0 0" fill="#d6faff"/><path d="m9.980469 505.167969c1.863281 1.015625 4.160156 1.292969 6.476562.386719l46.355469-18.15625-4.222656-46.417969zm0 0" fill="#292c32"/><path d="m54.632812 457.367188-30.03125-8.183594-18.15625 46.359375c-1.550781 3.960937.347657 7.882812 3.535157 9.625l48.609375-33.285157zm0 0" fill="#464e54"/><path d="m117.445312 410.914062 8.183594 51.886719-62.816406 24.597657-10.925781-10.925782zm0 0" fill="#ff986d"/><path d="m49.199219 386.371094 67.082031 23.375-12.476562 31.230468-51.917969 35.496094-27.285157-27.289062zm0 0" fill="#ffc295"/><path d="m49.199219 386.371094 54.605469 54.605468 34.941406-8.738281 282.242187-282.242187-89.542969-45.867188zm0 0" fill="#2275ff"/><path d="m407.871094 136.878906v43.675782l-282.246094 282.246093-21.835938-21.839843zm0 0" fill="#2a51ff"/><path d="m415.152344 129.597656 21.835937 21.839844-29.117187 29.117188-21.835938-21.839844-7.296875-36.410156zm0 0" fill="#adf5ff"/><path d="m386.035156 158.71875-54.589844-54.585938 29.117188-29.117187 54.589844 54.585937zm0 0" fill="#d6faff"/></svg>