<svg id="Layer_1" enable-background="new 0 0 512 512" viewBox="0 0 512 512" xmlns="http://www.w3.org/2000/svg" xmlns:xlink="http://www.w3.org/1999/xlink"><linearGradient id="SVGID_1_" gradientUnits="userSpaceOnUse" x1="106.267" x2="381.345" y1="500.754" y2="24.306"><stop offset="0" stop-color="#f9ea66"/><stop offset="1" stop-color="#14b185"/></linearGradient><path d="m56.167 103.975v316.655c0 8.389 6.845 15.231 15.232 15.231h147.975c-2.834-12.25-3.287-24.84-1.61-37.561h-71.05c-4.418 0-8-3.582-8-8s3.582-8 8-8h74.249c1.465-5.494 3.3-10.995 5.491-16.489.357-.896.724-1.788 1.097-2.68h-80.837c-4.418 0-8-3.582-8-8s3.582-8 8-8h88.502c3.516-6.531 7.428-12.929 11.648-19.168h-100.15c-4.418 0-8-3.582-8-8s3.582-8 8-8h111.881c5.104-6.462 10.482-12.709 16.019-18.708-4.501-5.002-7.246-11.615-7.246-18.853 0-9.875 5.109-18.586 12.82-23.631-.543-.779-1.106-1.583-1.693-2.42-8.498-12.129-19.304-31.119-4.289-43.238 5.071-4.093 11.689-5.203 18.669-4.744v-93.865c0-2.203 1.797-4 4-4h30.591c2.203 0 4 1.797 4 4v85.091c7.648-5.161 16.618-7.307 26.273-7.307 2.818 0 5.578.184 8.264.571v-160.627c-.003-8.387-6.846-15.232-15.235-15.232h-199.627v65.223c0 16.405-13.347 29.752-29.752 29.752zm57.064 294.326h-17.582c-4.418 0-8-3.582-8-8s3.582-8 8-8h17.581c4.418 0 8 3.582 8 8s-3.581 8-7.999 8zm0-35.168h-17.582c-4.418 0-8-3.582-8-8s3.582-8 8-8h17.581c4.418 0 8 3.582 8 8 .001 4.418-3.581 8-7.999 8zm0-35.168h-17.582c-4.418 0-8-3.582-8-8s3.582-8 8-8h17.581c4.418 0 8 3.582 8 8 .001 4.418-3.581 8-7.999 8zm16.062-57.561c0 2.203-1.797 4-4 4h-30.59c-2.203 0-4-1.797-4-4v-57.92c0-2.203 1.797-4 4-4h30.591c2.203 0 4 1.797 4 4v57.92zm67.39 0c0 2.203-1.797 4-4 4h-30.59c-2.203 0-4-1.797-4-4v-93.245c0-2.203 1.797-4 4-4h30.59c2.203 0 4 1.797 4 4zm67.39 0c0 2.203-1.797 4-4 4h-30.591c-2.203 0-4-1.797-4-4v-128.574c0-2.203 1.797-4 4-4h30.591c2.203 0 4 1.797 4 4zm7.035-214.683-12.759-2.526c-4.332-.845-7.158-5.043-6.312-9.375s5.043-7.158 9.375-6.312l33.622 6.657c4.917.96 7.715 6.133 5.912 10.758l-10.926 32.094c-1.415 4.177-5.948 6.415-10.125 5s-6.415-5.948-5-10.125l4.205-12.352-164.47 94.956c-3.814 2.209-8.697.908-10.906-2.906s-.908-8.697 2.906-10.906zm-210.48 27.794 70.052-70.053c1.355-1.355 2.843-2.402 4.461-3.141v63.903c0 7.576-6.179 13.753-13.753 13.753h-63.901c.739-1.619 1.787-3.108 3.141-4.462zm163.909 368.346c1.538 3.673 3.314 7.305 5.334 10.89h-185.362c-8.384 0-15.232-6.845-15.232-15.232v-396.398c0-8.387 6.842-15.231 15.232-15.231h41.117l-36.311 36.311c-5.966 5.966-9.147 13.646-9.147 22.084v326.345c0 17.219 14.013 31.231 31.231 31.231zm195.348-189.678c6.722 0 12.221 5.5 12.221 12.221 0 6.722-5.5 12.221-12.221 12.221h-124.299c-6.721 0-12.221-5.5-12.221-12.221 0-6.722 5.499-12.221 12.221-12.221zm-62.149-61.895c31.028 0 24.258 29.019 40.337 23.076 38.305-14.158 41.484-6.576 25.802 15.808-1.906 2.72-3.483 5.009-4.818 7.011h-122.642c-1.335-2.002-2.912-4.291-4.818-7.011-15.682-22.384-12.503-29.967 25.802-15.808 16.079 5.943 9.309-23.076 40.337-23.076zm0 137.879c-30.801 0-55.768 24.967-55.768 55.768s24.967 55.768 55.768 55.768 55.768-24.967 55.768-55.768-24.967-55.768-55.768-55.768zm8 91.404v2.301c0 4.418-3.582 8-8 8s-8-3.582-8-8v-1.968c-5.166-1.244-9.837-4.344-12.954-8.654-2.589-3.573-1.791-8.568 1.781-11.156 3.573-2.589 8.567-1.791 11.156 1.781 1.239 1.713 2.998 2.636 5.116 2.636h4.498c3.442 0 6.288-2.846 6.288-6.288s-2.846-6.288-6.288-6.288h-3.194c-6.138 0-11.712-2.506-15.747-6.541s-6.541-9.61-6.541-15.748c0-9.839 6.508-18.522 15.885-21.347v-2.301c0-4.418 3.582-8 8-8s8 3.582 8 8v1.968c5.167 1.245 9.837 4.343 12.954 8.654 2.589 3.573 1.791 8.567-1.781 11.156s-8.567 1.791-11.156-1.781c-1.239-1.713-2.999-2.636-5.116-2.636h-4.498c-3.442 0-6.288 2.846-6.288 6.288s2.846 6.289 6.288 6.289h3.194c12.275 0 22.288 10.013 22.288 22.288 0 9.837-6.508 18.522-15.885 21.347zm61.149-127.827c-2.239.574-4.585.881-7 .881h-124.299c-2.415 0-4.761-.306-7-.881-45.326 48.23-78.023 111.115-37.317 164.444 18.299 23.972 44.251 36.812 74.41 36.812h64.112c30.155 0 56.104-12.835 74.403-36.802 40.72-53.327 8.02-116.219-37.309-164.454zm-69.149 163.958c-39.635 0-71.767-32.133-71.767-71.768s32.133-71.768 71.767-71.768c39.635 0 71.768 32.133 71.768 71.768-.001 39.635-32.134 71.768-71.768 71.768z" fill="url(#SVGID_1_)"/></svg>