<svg id="Layer_1" height="512" viewBox="0 0 512 512" width="512" xmlns="http://www.w3.org/2000/svg" xmlns:xlink="http://www.w3.org/1999/xlink" data-name="Layer 1"><linearGradient id="GradientFill_1" gradientUnits="userSpaceOnUse" x1="256.001" x2="256.001" y1="512.253" y2=".248"><stop offset="0" stop-color="#6c54a3"/><stop offset="1" stop-color="#00b1d2"/></linearGradient><path d="m256 .248c141.384 0 256 114.622 256 256s-114.615 256.005-256 256.005-256-114.623-256-256.006 114.614-256 256-256zm0 265.378a.966.966 0 1 0 -.967-.971.983.983 0 0 0 .967.971zm0-12.765a11.8 11.8 0 1 0 11.8 11.794 11.808 11.808 0 0 0 -11.8-11.794zm-3-62.95a3.351 3.351 0 0 0 -.9 2.8l3.9 36.337 3.9-36.337a3.6 3.6 0 0 0 -3.585-3.985h-.628a3.337 3.337 0 0 0 -2.681 1.188zm-6.291 54.144a9.34 9.34 0 0 0 18.573 0l5.382-50.19a14.429 14.429 0 0 0 -14.355-15.976h-.628a14.433 14.433 0 0 0 -14.356 15.976zm-66.482 31.429a3.487 3.487 0 0 0 3.029 5.233h145.483a3.487 3.487 0 0 0 3.027-5.233l-72.739-125.995a3.5 3.5 0 0 0 -6.054 0l-72.741 125.995zm3.029 16.071h145.483a14.332 14.332 0 0 0 12.41-21.5l-72.739-125.981a14.326 14.326 0 0 0 -24.82 0l-72.739 125.986a14.332 14.332 0 0 0 12.41 21.5zm212.219 8.33v-171.306h-278.953v171.306zm5.425-182.134h-289.8a5.412 5.412 0 0 0 -5.417 5.414v182.135a5.42 5.42 0 0 0 5.417 5.414h289.8a5.419 5.419 0 0 0 5.417-5.414v-182.135a5.41 5.41 0 0 0 -5.417-5.414zm17.6 205.016v-205.697a11.527 11.527 0 0 0 -11.512-11.513h-301.978a11.524 11.524 0 0 0 -11.51 11.513v205.7a11.522 11.522 0 0 0 11.51 11.514h301.98a11.524 11.524 0 0 0 11.51-11.517zm-118.943 49.518a45.9 45.9 0 0 1 -3.772-27.176h-77.846a45.907 45.907 0 0 1 -3.775 27.176zm20.734 22.742a11.921 11.921 0 0 0 -11.912-11.908h-104.756a11.923 11.923 0 0 0 -11.916 11.908v11.917h128.584z" fill="url(#GradientFill_1)" fill-rule="evenodd"/></svg>