<?xml version="1.0" encoding="utf-8"?>
<!-- Generator: Adobe Illustrator 27.9.0, SVG Export Plug-In . SVG Version: 6.00 Build 0)  -->
<svg version="1.1" xmlns="http://www.w3.org/2000/svg" xmlns:xlink="http://www.w3.org/1999/xlink" x="0px" y="0px"
	 viewBox="0 0 750 500" style="enable-background:new 0 0 750 500;" xml:space="preserve">
<style type="text/css">
	.st0{fill:#FFFFFF;}
	.st1{clip-path:url(#SVGID_00000132791645650758846350000009020580665798903478_);}
	.st2{fill-rule:evenodd;clip-rule:evenodd;fill:url(#SVGID_00000075121622515252932710000009400559866302120637_);}
	.st3{fill:url(#SVGID_00000165222432390571067110000008004862483271985301_);}
	.st4{fill:url(#SVGID_00000059997706816993730150000001847705725357031320_);}
	.st5{fill:none;stroke:#000000;stroke-miterlimit:10;}
	.st6{fill:none;stroke:#000000;stroke-width:0.961;stroke-miterlimit:10;}
	.st7{fill:none;stroke:#999999;stroke-width:2;stroke-linecap:round;stroke-miterlimit:10;stroke-dasharray:0,4;}
	.st8{fill:url(#SVGID_00000137114360818572188890000002028965429388740274_);}
	.st9{fill:url(#SVGID_00000023989038519526431000000001870571967158357167_);}
	.st10{fill-rule:evenodd;clip-rule:evenodd;fill:none;stroke:#000000;stroke-miterlimit:10;}
	.st11{fill-rule:evenodd;clip-rule:evenodd;fill:none;stroke:#333333;stroke-miterlimit:10;stroke-dasharray:9,1;}
	
		.st12{fill-rule:evenodd;clip-rule:evenodd;fill:none;stroke:#000000;stroke-width:3;stroke-linecap:round;stroke-miterlimit:10;stroke-dasharray:0,8;}
	
		.st13{fill-rule:evenodd;clip-rule:evenodd;fill:none;stroke:#4D4D4D;stroke-width:2;stroke-linecap:round;stroke-miterlimit:10;stroke-dasharray:0,4;}
	.st14{fill-rule:evenodd;clip-rule:evenodd;fill:none;stroke:#1A1A1A;stroke-width:0.712;stroke-miterlimit:10;}
	
		.st15{fill-rule:evenodd;clip-rule:evenodd;fill:none;stroke:#000000;stroke-width:2;stroke-linecap:round;stroke-miterlimit:10;stroke-dasharray:0,4;}
	.st16{fill:none;stroke:#000000;stroke-width:8;stroke-miterlimit:10;stroke-dasharray:6;}
	.st17{fill:#808080;}
	.st18{fill:none;stroke:#FFFFFF;stroke-width:5.0304;stroke-miterlimit:10;stroke-dasharray:2;}
	.st19{fill:none;stroke:#000000;stroke-width:2;stroke-linecap:round;stroke-miterlimit:10;stroke-dasharray:0,6;}
	.st20{fill:none;stroke:#4D4D4D;stroke-width:8.8603;stroke-miterlimit:10;stroke-dasharray:0.5538,1.3;}
	.st21{stroke:#FFFFFF;stroke-miterlimit:10;}
	.st22{fill:#FFFFFF;stroke:#000000;stroke-miterlimit:10;}
	.st23{stroke:#FFFFFF;stroke-width:0.8961;stroke-miterlimit:10;}
	.st24{fill-rule:evenodd;clip-rule:evenodd;fill:#FFFFFF;stroke:#000000;stroke-miterlimit:10;}
	.st25{fill-rule:evenodd;clip-rule:evenodd;fill:none;stroke:#000000;stroke-width:0.5;stroke-miterlimit:10;}
	.st26{fill-rule:evenodd;clip-rule:evenodd;fill:#FFFFFF;stroke:#000000;stroke-width:0.5;stroke-miterlimit:10;}
	.st27{fill-rule:evenodd;clip-rule:evenodd;stroke:#FFFFFF;stroke-width:0.5;stroke-miterlimit:10;}
	.st28{fill-rule:evenodd;clip-rule:evenodd;fill:none;stroke:#000000;stroke-width:2;stroke-miterlimit:10;}
	.st29{fill:none;stroke:#000000;stroke-width:2;stroke-miterlimit:10;}
	.st30{fill:none;stroke:#1A1A1A;stroke-width:5;stroke-miterlimit:10;stroke-dasharray:1,2;}
	.st31{fill:none;stroke:#1A1A1A;stroke-width:8;stroke-miterlimit:10;stroke-dasharray:0.5,1;}
	.st32{fill-rule:evenodd;clip-rule:evenodd;fill:none;stroke:#1A1A1A;stroke-width:0.3529;stroke-miterlimit:10;}
	.st33{stroke:#FFFFFF;stroke-width:1.2829;stroke-miterlimit:10;}
	.st34{fill:none;stroke:#000000;stroke-width:0.5;stroke-miterlimit:10;}
	.st35{fill:none;stroke:#1A1A1A;stroke-width:2;stroke-miterlimit:10;}
	.st36{fill:none;stroke:#1A1A1A;stroke-width:2;stroke-linecap:round;stroke-miterlimit:10;stroke-dasharray:0,4;}
	.st37{fill:none;stroke:#000000;stroke-width:0.6036;stroke-miterlimit:10;}
	.st38{fill-rule:evenodd;clip-rule:evenodd;fill:none;stroke:#1A1A1A;stroke-miterlimit:10;}
</style>
<g id="Background">
	<rect class="st0" width="750" height="500"/>
</g>
<g id="Objects">
	<g>
		<defs>
			<rect id="SVGID_1_" width="750" height="500"/>
		</defs>
		<clipPath id="SVGID_00000132807990793999635160000004727379646303820689_">
			<use xlink:href="#SVGID_1_"  style="overflow:visible;"/>
		</clipPath>
		<g style="clip-path:url(#SVGID_00000132807990793999635160000004727379646303820689_);">
			
				<linearGradient id="SVGID_00000176029287327798123770000009915690244501786026_" gradientUnits="userSpaceOnUse" x1="375" y1="512.744" x2="375" y2="-5.076">
				<stop  offset="0" style="stop-color:#AFBDC4"/>
				<stop  offset="0.0396" style="stop-color:#CAD3D8"/>
				<stop  offset="0.0928" style="stop-color:#E7EBED"/>
				<stop  offset="0.1388" style="stop-color:#F9FAFA"/>
				<stop  offset="0.172" style="stop-color:#FFFFFF"/>
				<stop  offset="0.7634" style="stop-color:#FFFFFF"/>
				<stop  offset="0.8607" style="stop-color:#FFFFFF"/>
				<stop  offset="0.9013" style="stop-color:#FBFCFC"/>
				<stop  offset="0.9403" style="stop-color:#F0F2F4"/>
				<stop  offset="0.9787" style="stop-color:#DCE3E5"/>
				<stop  offset="1" style="stop-color:#CED7DB"/>
			</linearGradient>
			
				<rect style="fill-rule:evenodd;clip-rule:evenodd;fill:url(#SVGID_00000176029287327798123770000009915690244501786026_);" width="750" height="500"/>
			
				<radialGradient id="SVGID_00000080173630742771110690000004107786191200739988_" cx="375" cy="250" r="164.3738" gradientUnits="userSpaceOnUse">
				<stop  offset="0.7838" style="stop-color:#FFFFFF"/>
				<stop  offset="0.7855" style="stop-color:#FDFDFE"/>
				<stop  offset="0.7861" style="stop-color:#F6F8F9"/>
				<stop  offset="0.7866" style="stop-color:#EBEEF0"/>
				<stop  offset="0.7869" style="stop-color:#DAE1E4"/>
				<stop  offset="0.7871" style="stop-color:#CED7DB"/>
				<stop  offset="0.7891" style="stop-color:#CFD8DC"/>
				<stop  offset="0.8283" style="stop-color:#E4E9EB"/>
				<stop  offset="0.8718" style="stop-color:#F3F6F6"/>
				<stop  offset="0.923" style="stop-color:#FCFDFD"/>
				<stop  offset="1" style="stop-color:#FFFFFF"/>
			</radialGradient>
			<circle style="fill:url(#SVGID_00000080173630742771110690000004107786191200739988_);" cx="375" cy="250" r="164.37"/>
			
				<radialGradient id="SVGID_00000024695792384779983900000011973277769200400558_" cx="375" cy="250" r="114.0295" gradientUnits="userSpaceOnUse">
				<stop  offset="0.8242" style="stop-color:#FFFFFF"/>
				<stop  offset="0.9154" style="stop-color:#FDFDFE"/>
				<stop  offset="0.9483" style="stop-color:#F6F8F9"/>
				<stop  offset="0.9717" style="stop-color:#EBEEF0"/>
				<stop  offset="0.9905" style="stop-color:#DAE1E4"/>
				<stop  offset="1" style="stop-color:#CED7DB"/>
			</radialGradient>
			<circle style="fill:url(#SVGID_00000024695792384779983900000011973277769200400558_);" cx="375" cy="250" r="114.03"/>
			<circle class="st5" cx="375" cy="250" r="129.74"/>
			<g>
				<path class="st6" d="M325.4,364.4c-63.18-27.4-92.19-100.82-64.79-164"/>
				<path class="st6" d="M424.6,135.6c63.18,27.4,92.19,100.82,64.79,164"/>
			</g>
			<g>
				<path class="st7" d="M262.37,291.12c-22.71-62.2,9.3-131.04,71.51-153.75"/>
				<path class="st7" d="M487.63,208.88c22.71,62.2-9.3,131.04-71.51,153.75"/>
			</g>
			
				<radialGradient id="SVGID_00000036221582575164229110000012627460635192500399_" cx="375" cy="250" r="106.4824" gradientUnits="userSpaceOnUse">
				<stop  offset="0.8242" style="stop-color:#FFFFFF"/>
				<stop  offset="0.9154" style="stop-color:#FDFDFE"/>
				<stop  offset="0.9483" style="stop-color:#F6F8F9"/>
				<stop  offset="0.9717" style="stop-color:#EBEEF0"/>
				<stop  offset="0.9905" style="stop-color:#DAE1E4"/>
				<stop  offset="1" style="stop-color:#CED7DB"/>
			</radialGradient>
			<circle style="fill:url(#SVGID_00000036221582575164229110000012627460635192500399_);" cx="375" cy="250" r="106.48"/>
			
				<radialGradient id="SVGID_00000123399867965849446510000008275314744120920230_" cx="375" cy="250" r="59.6566" gradientUnits="userSpaceOnUse">
				<stop  offset="0.7494" style="stop-color:#FFFFFF"/>
				<stop  offset="0.8795" style="stop-color:#FDFDFE"/>
				<stop  offset="0.9263" style="stop-color:#F6F8F9"/>
				<stop  offset="0.9597" style="stop-color:#EBEEF0"/>
				<stop  offset="0.9865" style="stop-color:#DAE1E4"/>
				<stop  offset="1" style="stop-color:#CED7DB"/>
			</radialGradient>
			<circle style="fill:url(#SVGID_00000123399867965849446510000008275314744120920230_);" cx="375" cy="250" r="59.66"/>
			<polyline class="st5" points="750.5,158.78 645.86,158.78 585.91,218.73 501.78,218.73 			"/>
			<polyline class="st5" points="755.56,420.12 665.05,420.12 599.58,354.66 467.07,354.66 			"/>
			<polyline class="st5" points="-0.2,155.2 124.96,155.2 177.62,207.86 251.85,207.86 			"/>
			<polyline class="st5" points="-0.2,397.76 50.73,397.76 165.53,282.96 249.26,282.96 			"/>
			<polyline class="st10" points="500.62,282.58 572.84,282.58 588.19,267.23 755.56,267.23 			"/>
			<polyline class="st11" points="755.56,307.29 649.24,307.29 640.14,298.2 507.91,298.2 			"/>
			<polyline class="st12" points="535.06,236.8 594.74,236.8 652.61,178.93 750.5,178.93 			"/>
			<polyline class="st12" points="124.53,379.74 178.44,325.84 269.72,325.84 			"/>
			<polyline class="st13" points="211.5,379.74 238.91,352.33 295.23,352.33 			"/>
			<polyline class="st10" points="-4.57,207.86 25.05,207.86 59.54,242.35 245.26,242.35 			"/>
			<polyline class="st14" points="-4.57,297.67 14.91,297.67 47.22,265.36 188.82,265.36 			"/>
			<polyline class="st15" points="482.85,177.86 538.34,177.86 564.05,152.15 			"/>
			<polyline class="st10" points="453.85,146.96 472.16,146.96 492.74,126.39 			"/>
			<polyline class="st14" points="277.34,164.59 251.85,164.59 223.27,136.01 			"/>
			<g>
				<g>
					<polygon points="462.47,364.03 454.8,371.7 477.17,371.7 484.84,364.03 					"/>
				</g>
				<g>
					<polygon points="492.51,364.03 484.84,371.7 507.21,371.7 514.88,364.03 					"/>
				</g>
				<g>
					<polygon points="522.55,364.03 514.88,371.7 537.25,371.7 544.92,364.03 					"/>
				</g>
				<g>
					<polygon points="552.6,364.03 544.92,371.7 567.29,371.7 574.97,364.03 					"/>
				</g>
			</g>
			<g>
				<g>
					<polygon points="179.8,151.86 176.06,148.13 186.95,148.13 190.69,151.86 					"/>
				</g>
				<g>
					<polygon points="194.42,151.86 190.69,148.13 201.58,148.13 205.31,151.86 					"/>
				</g>
				<g>
					<polygon points="209.04,151.86 205.31,148.13 216.2,148.13 219.93,151.86 					"/>
				</g>
				<g>
					<polygon points="223.67,151.86 219.93,148.13 230.82,148.13 234.56,151.86 					"/>
				</g>
			</g>
			<g>
				<g>
					<g>
						<path d="M56.68,163.68l3.44,3.45H47.08l-3.44-3.45H56.68 M57.1,162.68H41.22l5.44,5.45h15.88L57.1,162.68L57.1,162.68z"/>
					</g>
				</g>
				<g>
					<g>
						<path d="M78,163.68l3.44,3.45H68.4l-3.44-3.45H78 M78.42,162.68H62.54l5.44,5.45h15.88L78.42,162.68L78.42,162.68z"/>
					</g>
				</g>
				<g>
					<g>
						<path d="M120.65,163.68l3.44,3.45h-13.05l-3.45-3.45H120.65 M121.06,162.68h-15.88l5.44,5.45h15.88L121.06,162.68
							L121.06,162.68z"/>
					</g>
				</g>
			</g>
			<circle class="st16" cx="375" cy="250" r="97.85"/>
			<g>
				<g>
					<g>
						<path class="st17" d="M374.92,166.31v3c23.66,0,45.76,10.11,61.11,27.85l-7.35,5.9c-13.54-15.5-32.96-24.33-53.74-24.33
							c-15.15,0-30.01,4.9-42.19,13.85l-5.9-7.35c13.84-10.28,30.8-15.91,48.08-15.91L374.92,166.31 M374.92,166.31
							c-18.39,0-36.91,6.02-52.33,18.4l9.66,12.03c12.59-10.11,27.69-15.01,42.69-15.01c20.01,0,39.85,8.73,53.33,25.51l12.03-9.66
							C423.77,177.01,399.45,166.31,374.92,166.31L374.92,166.31z"/>
					</g>
					<g>
						<path class="st17" d="M321.33,296.94c13.54,15.5,32.96,24.33,53.74,24.33c15.15,0,30.02-4.9,42.19-13.85l5.9,7.35
							c-13.84,10.28-30.8,15.91-48.08,15.91c-23.66,0-45.77-10.11-61.11-27.85L321.33,296.94 M321.74,292.76l-12.03,9.66
							c16.52,20.57,40.84,31.27,65.37,31.27c18.39,0,36.91-6.02,52.33-18.4l-9.66-12.03c-12.59,10.11-27.69,15.01-42.69,15.01
							C355.06,318.27,335.21,309.54,321.74,292.76L321.74,292.76z"/>
					</g>
				</g>
				<g>
					<path d="M455.5,273l-14.83-4.24c10.35-36.21-10.7-74.09-46.91-84.44L398,169.5C442.39,182.18,468.18,228.61,455.5,273z"/>
					<path d="M352,330.5c-44.39-12.68-70.19-59.11-57.5-103.5l14.83,4.24c-10.35,36.21,10.7,74.09,46.91,84.44L352,330.5z"/>
				</g>
			</g>
			<g>
				<circle class="st18" cx="375" cy="250" r="110.51"/>
			</g>
			<circle class="st19" cx="375" cy="250" r="53.43"/>
			<circle class="st20" cx="375" cy="250" r="42.18"/>
			<path class="st5" d="M467.13,354.67c0,1.24-1.01,2.25-2.25,2.25s-2.25-1.01-2.25-2.25s1.01-2.25,2.25-2.25
				S467.13,353.43,467.13,354.67z"/>
			<circle class="st21" cx="599.68" cy="354.63" r="2.44"/>
			<circle class="st21" cx="665.28" cy="420.23" r="2.44"/>
			<path class="st22" d="M590.17,267.26c0,1.09-0.88,1.97-1.97,1.97c-1.09,0-1.97-0.88-1.97-1.97c0-1.09,0.88-1.97,1.97-1.97
				C589.29,265.29,590.17,266.17,590.17,267.26z"/>
			<circle class="st22" cx="572.85" cy="282.57" r="1.64"/>
			<path class="st22" d="M502.6,282.42c0,1.02-0.83,1.85-1.85,1.85c-1.02,0-1.85-0.83-1.85-1.85c0-1.02,0.83-1.85,1.85-1.85
				C501.77,280.57,502.6,281.4,502.6,282.42z"/>
			<path class="st22" d="M490.41,301.01c0,0.86-0.7,1.56-1.56,1.56c-0.86,0-1.56-0.7-1.56-1.56c0-0.86,0.7-1.56,1.56-1.56
				C489.71,299.45,490.41,300.15,490.41,301.01z"/>
			<path class="st22" d="M503.01,218.8c0,0.97-0.79,1.76-1.76,1.76c-0.97,0-1.76-0.79-1.76-1.76c0-0.97,0.79-1.76,1.76-1.76
				C502.22,217.04,503.01,217.83,503.01,218.8z"/>
			<path class="st22" d="M587.53,218.57c0,0.93-0.75,1.68-1.68,1.68c-0.93,0-1.68-0.75-1.68-1.68c0-0.93,0.75-1.68,1.68-1.68
				C586.78,216.89,587.53,217.64,587.53,218.57z"/>
			<circle class="st21" cx="645.88" cy="158.89" r="1.78"/>
			<circle class="st21" cx="649.8" cy="267.26" r="2.29"/>
			<path class="st21" d="M511.02,298.33c0,1.73-1.4,3.14-3.14,3.14s-3.14-1.4-3.14-3.14s1.4-3.14,3.14-3.14
				S511.02,296.59,511.02,298.33z"/>
			<circle class="st21" cx="335.49" cy="373.53" r="2.51"/>
			<path class="st21" d="M345.85,376.04c0,1.14-0.92,2.06-2.06,2.06c-1.14,0-2.06-0.92-2.06-2.06s0.92-2.06,2.06-2.06
				C344.93,373.98,345.85,374.9,345.85,376.04z"/>
			<path class="st21" d="M396.03,121.65c0,1.22-0.99,2.21-2.21,2.21c-1.22,0-2.21-0.99-2.21-2.21s0.99-2.21,2.21-2.21
				C395.04,119.43,396.03,120.42,396.03,121.65z"/>
			<path class="st21" d="M379.58,120.4c0,1.22-0.99,2.21-2.21,2.21c-1.22,0-2.21-0.99-2.21-2.21c0-1.22,0.99-2.21,2.21-2.21
				C378.59,118.18,379.58,119.17,379.58,120.4z"/>
			<circle class="st22" cx="424.57" cy="135.53" r="1.91"/>
			<path class="st22" d="M496.61,125.02c0,1.23-1,2.24-2.24,2.24c-1.23,0-2.24-1-2.24-2.24c0-1.23,1-2.24,2.24-2.24
				C495.61,122.79,496.61,123.79,496.61,125.02z"/>
			<path class="st21" d="M473.52,146.97c0,0.78-0.63,1.41-1.41,1.41c-0.78,0-1.41-0.63-1.41-1.41c0-0.78,0.63-1.41,1.41-1.41
				C472.89,145.56,473.52,146.19,473.52,146.97z"/>
			<path class="st23" d="M528.17,236.42c0,2.35-1.9,4.25-4.25,4.25c-2.35,0-4.25-1.9-4.25-4.25c0-2.35,1.9-4.25,4.25-4.25
				C526.27,232.17,528.17,234.08,528.17,236.42z"/>
			<path class="st24" d="M568.73,150.07c0,1.8-1.46,3.26-3.26,3.26c-1.8,0-3.26-1.46-3.26-3.26c0-1.8,1.46-3.26,3.26-3.26
				C567.27,146.81,568.73,148.27,568.73,150.07z"/>
			<polyline class="st25" points="622.49,377.57 643.82,377.57 674.48,408.23 755.56,408.23 			"/>
			<polyline class="st25" points="651.92,385.67 686.6,385.67 698.84,397.91 755.56,397.91 			"/>
			<circle class="st26" cx="651.92" cy="385.67" r="1.28"/>
			<path class="st26" d="M675.8,408.23c0,0.73-0.59,1.32-1.32,1.32c-0.73,0-1.32-0.59-1.32-1.32c0-0.73,0.59-1.32,1.32-1.32
				C675.21,406.91,675.8,407.5,675.8,408.23z"/>
			<path class="st27" d="M700.03,397.91c0,0.65-0.53,1.18-1.18,1.18c-0.65,0-1.18-0.53-1.18-1.18s0.53-1.18,1.18-1.18
				C699.5,396.73,700.03,397.26,700.03,397.91z"/>
			<path class="st24" d="M624.45,377.57c0,1.08-0.88,1.96-1.96,1.96c-1.08,0-1.96-0.88-1.96-1.96c0-1.08,0.88-1.96,1.96-1.96
				C623.57,375.61,624.45,376.49,624.45,377.57z"/>
			<polyline class="st28" points="692.59,321.84 573.02,321.84 560.37,334.49 487.76,334.49 			"/>
			<line class="st29" x1="484.64" y1="337.61" x2="490.88" y2="331.37"/>
			<line class="st29" x1="689.47" y1="324.96" x2="695.71" y2="318.72"/>
			<line class="st30" x1="658.12" y1="285.75" x2="750" y2="285.75"/>
			<line class="st30" x1="504.74" y1="257.18" x2="531.5" y2="257.18"/>
			<line class="st30" x1="375" y1="379.74" x2="375" y2="400.88"/>
			<line class="st30" x1="234.97" y1="225.1" x2="169.49" y2="225.1"/>
			<line class="st31" x1="0" y1="254.13" x2="119.28" y2="254.13"/>
			<path class="st14" d="M212.28,267.34H190.8c-1.09,0-1.98-0.89-1.98-1.97l0,0c0-1.09,0.89-1.98,1.98-1.98h21.48
				c1.09,0,1.97,0.89,1.97,1.98l0,0C214.25,266.45,213.36,267.34,212.28,267.34z"/>
			<g>
				<polygon class="st32" points="375,249.62 362.11,271.94 387.89,271.94 				"/>
				<polygon class="st32" points="375,249.32 362.11,227 387.89,227 				"/>
			</g>
			<polyline class="st5" points="0,410.23 16.58,410.23 90.26,336.55 111.94,336.55 			"/>
			<path class="st22" d="M113.77,336.55c0,1.17-0.94,2.11-2.11,2.11s-2.11-0.94-2.11-2.11c0-1.16,0.94-2.11,2.11-2.11
				S113.77,335.38,113.77,336.55z"/>
			<path class="st22" d="M167.42,282.96c0,1.04-0.85,1.89-1.89,1.89c-1.04,0-1.89-0.85-1.89-1.89c0-1.04,0.85-1.89,1.89-1.89
				C166.58,281.07,167.42,281.91,167.42,282.96z"/>
			<circle class="st22" cx="47.22" cy="265.36" r="1.41"/>
			<path class="st22" d="M62.43,242.35c0,1.6-1.29,2.89-2.89,2.89c-1.6,0-2.89-1.29-2.89-2.89s1.29-2.89,2.89-2.89
				C61.14,239.46,62.43,240.75,62.43,242.35z"/>
			<path class="st22" d="M26.53,207.86c0-0.82-0.66-1.48-1.48-1.48c-0.82,0-1.48,0.66-1.48,1.48c0,0.82,0.66,1.48,1.48,1.48
				C25.87,209.34,26.53,208.68,26.53,207.86z"/>
			<path class="st22" d="M126.9,155.2c0,1.07-0.87,1.93-1.93,1.93s-1.93-0.87-1.93-1.93c0-1.07,0.87-1.93,1.93-1.93
				S126.9,154.14,126.9,155.2z"/>
			<path class="st22" d="M175.33,207.86c0,1.26,1.03,2.29,2.29,2.29c1.26,0,2.29-1.03,2.29-2.29c0-1.26-1.03-2.29-2.29-2.29
				C176.35,205.57,175.33,206.59,175.33,207.86z"/>
			<path class="st33" d="M224.74,136.01c0,0.81-0.66,1.47-1.47,1.47s-1.47-0.66-1.47-1.47s0.66-1.47,1.47-1.47
				S224.74,135.2,224.74,136.01z"/>
			<path class="st34" d="M60.4,234.55h94.03c2.3,0,4.16-1.86,4.16-4.16v-7.61"/>
			<path class="st34" d="M158.59,231H63.41c-1.66,0-3.01,1.35-3.01,3.01v5.45"/>
			<polyline class="st34" points="156.49,186.73 145.61,197.62 96.32,197.62 			"/>
			<polyline class="st34" points="142.11,172.35 135.28,179.18 88.87,179.18 57.59,210.45 			"/>
			<circle class="st22" cx="135.28" cy="179.18" r="0.99"/>
			<path class="st22" d="M144.16,172.35c0,1.13-0.92,2.05-2.05,2.05c-1.13,0-2.05-0.92-2.05-2.05c0-1.13,0.92-2.05,2.05-2.05
				C143.24,170.29,144.16,171.21,144.16,172.35z"/>
			<path class="st22" d="M146.66,197.62c0,0.58-0.47,1.05-1.05,1.05c-0.58,0-1.05-0.47-1.05-1.05c0-0.58,0.47-1.05,1.05-1.05
				C146.19,196.57,146.66,197.04,146.66,197.62z"/>
			<path class="st22" d="M157.6,186.73c0,0.61-0.5,1.11-1.11,1.11c-0.61,0-1.11-0.5-1.11-1.11c0-0.61,0.5-1.11,1.11-1.11
				C157.1,185.63,157.6,186.12,157.6,186.73z"/>
			<path class="st22" d="M97.48,197.62c0,0.64-0.52,1.15-1.15,1.15c-0.64,0-1.15-0.52-1.15-1.15c0-0.64,0.52-1.15,1.15-1.15
				C96.96,196.47,97.48,196.98,97.48,197.62z"/>
			<path class="st22" d="M59.81,210.45c0-1.23-0.99-2.22-2.22-2.22c-1.23,0-2.22,0.99-2.22,2.22c0,1.23,0.99,2.22,2.22,2.22
				C58.82,212.67,59.81,211.68,59.81,210.45z"/>
			
				<ellipse transform="matrix(0.9239 -0.3827 0.3827 0.9239 -115.5539 45.5215)" class="st35" cx="56.65" cy="313.23" rx="32.16" ry="32.16"/>
			
				<ellipse transform="matrix(0.1602 -0.9871 0.9871 0.1602 -261.6056 318.9695)" class="st30" cx="56.65" cy="313.23" rx="21.4" ry="21.4"/>
			
				<ellipse transform="matrix(0.9732 -0.2298 0.2298 0.9732 -32.9751 165.1217)" class="st36" cx="692.59" cy="224.17" rx="24.4" ry="24.4"/>
			<circle class="st37" cx="692.59" cy="224.17" r="12.64"/>
			<line class="st5" x1="89.58" y1="313.9" x2="111.66" y2="313.9"/>
			<path class="st21" d="M118.16,313.9c0,1.41-1.14,2.54-2.54,2.54c-1.41,0-2.54-1.14-2.54-2.54c0-1.41,1.14-2.54,2.54-2.54
				C117.02,311.35,118.16,312.49,118.16,313.9z"/>
			<path class="st21" d="M127.63,313.9c0,1.41-1.14,2.54-2.54,2.54s-2.54-1.14-2.54-2.54c0-1.41,1.14-2.54,2.54-2.54
				S127.63,312.49,127.63,313.9z"/>
			<path class="st21" d="M137.1,313.9c0,1.41-1.14,2.54-2.54,2.54s-2.54-1.14-2.54-2.54c0-1.41,1.14-2.54,2.54-2.54
				S137.1,312.49,137.1,313.9z"/>
			<path class="st21" d="M78.74,287.92c0,1.24-1,2.24-2.24,2.24c-1.24,0-2.24-1-2.24-2.24c0-1.24,1-2.24,2.24-2.24
				C77.74,285.68,78.74,286.69,78.74,287.92z"/>
			<path class="st21" d="M37.87,338.06c0,0.91-0.74,1.65-1.65,1.65c-0.91,0-1.65-0.74-1.65-1.65c0-0.91,0.74-1.65,1.65-1.65
				C37.13,336.4,37.87,337.14,37.87,338.06z"/>
			<path class="st21" d="M47.35,343.18c0,1.34-1.09,2.43-2.43,2.43c-1.34,0-2.43-1.09-2.43-2.43s1.09-2.43,2.43-2.43
				C46.27,340.75,47.35,341.84,47.35,343.18z"/>
			<circle class="st21" cx="56.65" cy="345.38" r="1.58"/>
			<circle class="st21" cx="701.61" cy="215.31" r="2.04"/>
			<circle class="st21" cx="684.36" cy="233.76" r="1.85"/>
			<path class="st21" d="M681.6,227.1c0,0.72-0.58,1.3-1.3,1.3c-0.72,0-1.3-0.58-1.3-1.3s0.58-1.3,1.3-1.3
				C681.02,225.81,681.6,226.39,681.6,227.1z"/>
			<polyline class="st5" points="692.59,236.8 692.59,256.9 702.77,267.08 			"/>
			<polyline class="st5" points="683.58,215.31 669.42,201.16 669.42,158.78 			"/>
			<path class="st21" d="M673.27,178.93c0,2.12-1.72,3.84-3.84,3.84c-2.12,0-3.84-1.72-3.84-3.84c0-2.12,1.72-3.84,3.84-3.84
				C671.55,175.09,673.27,176.81,673.27,178.93z"/>
			<path class="st21" d="M670.72,200.88c0,0.72-0.58,1.3-1.3,1.3c-0.72,0-1.3-0.58-1.3-1.3c0-0.72,0.58-1.3,1.3-1.3
				C670.14,199.59,670.72,200.17,670.72,200.88z"/>
			<g>
				<path class="st22" d="M659.97,252.24h-23.92c-1.68,0-3.05-1.37-3.05-3.05l0,0c0-1.68,1.37-3.05,3.05-3.05h23.92
					c1.68,0,3.05,1.37,3.05,3.05l0,0C663.02,250.87,661.65,252.24,659.97,252.24z"/>
				<path class="st22" d="M623.12,252.24h-8.92c-1.68,0-3.05-1.37-3.05-3.05l0,0c0-1.68,1.37-3.05,3.05-3.05h8.92
					c1.68,0,3.05,1.37,3.05,3.05l0,0C626.16,250.87,624.79,252.24,623.12,252.24z"/>
			</g>
			<path class="st38" d="M209.3,387.84L190.14,407c-1.43,1.43-3.76,1.43-5.19,0l0,0c-1.43-1.43-1.43-3.76,0-5.19l19.16-19.16
				c1.43-1.43,3.76-1.43,5.19,0h0C210.73,384.08,210.73,386.42,209.3,387.84z"/>
			<path class="st38" d="M121.72,388.53l-7.9,7.9c-1.43,1.43-3.76,1.43-5.19,0l0,0c-1.43-1.43-1.43-3.76,0-5.19l7.9-7.9
				c1.43-1.43,3.76-1.43,5.19,0l0,0C123.15,384.76,123.15,387.1,121.72,388.53z"/>
		</g>
	</g>
</g>
</svg>
