<svg id="Layer_1" enable-background="new 0 0 512 512" height="512" viewBox="0 0 512 512" width="512" xmlns="http://www.w3.org/2000/svg" xmlns:xlink="http://www.w3.org/1999/xlink"><linearGradient id="SVGID_1_" gradientUnits="userSpaceOnUse" x1="46.076" x2="478.991" y1="472.457" y2="39.542"><stop offset="0" stop-color="#589df8"/><stop offset="1" stop-color="#8cf29d"/></linearGradient><path d="m346.31 206.58h-42.02l36.35-187.21c1.48-7.6-2.7-15.17-9.92-17.97s-15.41-.03-19.44 6.58l-166.75 273.1c-3.02 4.94-3.13 11.12-.3 16.17s8.17 8.17 13.95 8.17h56.08l-27.61 187.94c-1.13 7.71 3.46 15.12 10.87 17.54 1.64.53 3.31.79 4.96.79 5.81 0 11.33-3.18 14.16-8.55l143.82-273.1c2.61-4.96 2.44-10.92-.46-15.72-2.89-4.81-8.09-7.74-13.69-7.74zm-114.4 198.89 16.71-113.73c.68-4.6-.68-9.27-3.72-12.79s-7.46-5.54-12.11-5.54h-46.09l105.6-172.94-23.12 119.05c-.91 4.69.32 9.54 3.36 13.23s7.57 5.82 12.34 5.82h34.92zm277.79-229.23c-2.9-4.8-8.09-7.73-13.7-7.73h-15.6l19.12-98.46c1.48-7.6-2.7-15.17-9.92-17.97s-15.41-.03-19.44 6.58l-95.01 155.59c-3.02 4.94-3.13 11.12-.3 16.17s8.17 8.17 13.95 8.17h24l-14.57 99.19c-1.13 7.71 3.46 15.12 10.87 17.54 1.64.54 3.31.79 4.96.79 5.81 0 11.33-3.17 14.16-8.55l81.95-155.59c2.6-4.97 2.42-10.93-.47-15.73zm-66.22 73.66 3.67-24.99c.68-4.6-.68-9.27-3.72-12.79s-7.46-5.54-12.11-5.54h-14l33.86-55.44-5.89 30.32c-.91 4.69.32 9.54 3.36 13.23s7.57 5.82 12.34 5.82h8.5zm-320.31 23.52h-15.57l19.12-98.46c1.48-7.6-2.7-15.17-9.92-17.97s-15.41-.03-19.44 6.58l-95.01 155.56c-3.02 4.94-3.13 11.12-.3 16.17s8.17 8.17 13.95 8.17h24l-14.57 99.22c-1.13 7.71 3.46 15.12 10.87 17.54 1.64.53 3.31.79 4.96.79 5.81 0 11.33-3.18 14.16-8.55l81.92-155.59c2.61-4.96 2.44-10.92-.46-15.72-2.9-4.81-8.1-7.74-13.71-7.74zm-52.49 81.36 3.67-24.99c.68-4.6-.68-9.27-3.72-12.78-3.04-3.52-7.46-5.54-12.11-5.54h-14l33.86-55.44-5.89 30.34c-.91 4.69.32 9.54 3.36 13.23s7.57 5.82 12.34 5.82h8.47z" fill="url(#SVGID_1_)"/></svg>