<svg id="duo_tone" height="512" viewBox="0 0 16 16" width="512" xmlns="http://www.w3.org/2000/svg"><g><path d="m6.5 15.5h-5c-.552 0-1-.448-1-1v-5c0-.552.448-1 1-1h5c.552 0 1 .448 1 1v5c0 .552-.448 1-1 1z" fill="#00ecce"/><g fill="#01a28e"><path d="m2.452 1.888c.018.002.036.003.054.003.252 0 .469-.189.497-.446.028-.254.241-.445.497-.445h.575c.276 0 .5-.224.5-.5s-.224-.5-.5-.5h-.575c-.767 0-1.408.575-1.491 1.336-.03.275.168.522.443.552z"/><path d="m2.5 5.963c.276 0 .5-.224.5-.5v-2.036c0-.276-.224-.5-.5-.5s-.5.223-.5.5v2.037c0 .276.224.499.5.499z"/><path d="m6.111 1h2.037c.276 0 .5-.224.5-.5s-.224-.5-.5-.5h-2.037c-.276 0-.5.224-.5.5s.224.5.5.5z"/><path d="m10.185 1h2.037c.276 0 .5-.224.5-.5s-.224-.5-.501-.5h-2.037c-.276 0-.5.224-.5.5s.224.5.501.5z"/><path d="m15.5 7.333c-.276 0-.5.224-.5.5v2.037c0 .276.224.5.5.5s.5-.224.5-.5v-2.037c0-.277-.224-.5-.5-.5z"/><path d="m15.5 3.259c-.276 0-.5.224-.5.5v2.037c0 .276.224.5.5.5s.5-.224.5-.5v-2.037c0-.276-.224-.5-.5-.5z"/><path d="m15.5 11.406c-.276 0-.5.224-.5.5v.594c0 .251-.187.464-.435.496-.274.035-.468.286-.433.56.033.252.248.437.496.437.021 0 .042-.001.064-.004.746-.097 1.308-.737 1.308-1.489v-.594c0-.277-.224-.5-.5-.5z"/><path d="m14.5 0h-.242c-.276 0-.5.224-.5.5s.224.5.5.5h.242c.276 0 .5.224.5.5v.223c0 .276.224.5.5.5s.5-.223.5-.5v-.223c0-.827-.673-1.5-1.5-1.5z"/><path d="m12.592 13h-2.037c-.276 0-.5.224-.5.5s.224.5.5.5h2.037c.276 0 .5-.224.5-.5s-.223-.5-.5-.5z"/><path d="m8.5 13h-.5v-3.5c0-.827-.673-1.5-1.5-1.5h-3.5v-.5c0-.276-.224-.5-.5-.5s-.5.224-.5.5v.5h-.5c-.827 0-1.5.673-1.5 1.5v5c0 .827.673 1.5 1.5 1.5h5c.827 0 1.5-.673 1.5-1.5v-.5h.5c.276 0 .5-.224.5-.5s-.224-.5-.5-.5zm-1.5 1.5c0 .276-.224.5-.5.5h-5c-.276 0-.5-.224-.5-.5v-5c0-.276.224-.5.5-.5h5c.276 0 .5.224.5.5z"/><path d="m12 5.5c0 .276.224.5.5.5s.5-.224.5-.5v-2c0-.276-.224-.5-.5-.5h-2c-.276 0-.5.224-.5.5s.224.5.5.5h.793l-2.147 2.146c-.195.195-.195.512 0 .707.098.098.226.147.354.147s.256-.049.354-.146l2.146-2.147z"/></g></g></svg>