<svg id="Layer_1" height="512" viewBox="0 0 512 512" width="512" xmlns="http://www.w3.org/2000/svg" xmlns:xlink="http://www.w3.org/1999/xlink" data-name="Layer 1"><linearGradient id="GradientFill_1" gradientUnits="userSpaceOnUse" x1="256" x2="256.001" y1="511.992" y2=".037"><stop offset="0" stop-color="#6c54a3"/><stop offset="1" stop-color="#00b1d2"/></linearGradient><path d="m331.55 68.614a10.11 10.11 0 1 1 -10.11 10.11 10.125 10.125 0 0 1 10.11-10.11zm33.51 35.544a10.111 10.111 0 1 1 10.11 10.115 10.119 10.119 0 0 1 -10.11-10.115zm43.866 83.514a10.111 10.111 0 1 1 -10.1 10.106 10.121 10.121 0 0 1 10.1-10.106zm-23.645 103.735a10.111 10.111 0 1 1 -10.111-10.107 10.118 10.118 0 0 1 10.111 10.11zm-43.621 25.433a10.11 10.11 0 1 1 -10.11-10.11 10.118 10.118 0 0 1 10.11 10.11zm-70.96-69.181a50.237 50.237 0 0 1 0-99.753zm54.849-147.659v40.913h-42.88a6 6 0 0 0 -5.968-5.369 62.235 62.235 0 0 0 0 124.47 6.009 6.009 0 0 0 5.968-5.364h42.88v40.907a22.107 22.107 0 1 0 12 0v-43.057a9.858 9.858 0 0 0 -9.841-9.847h-45.008v-13.441h86.467v40.918a22.11 22.11 0 1 0 12 0v-43.069a9.851 9.851 0 0 0 -9.837-9.846h-88.63v-13.432h104.949a22.115 22.115 0 1 0 0-12h-104.949v-13.433h88.63a9.854 9.854 0 0 0 9.837-9.846v-43.064a22.11 22.11 0 1 0 -12 0v40.908h-86.467v-13.437h45.01a9.854 9.854 0 0 0 9.841-9.841v-43.07a22.112 22.112 0 1 0 -12 0zm-191.179 75.727v44.111l25.957 3.184a6 6 0 0 1 5.072 4.416 114.832 114.832 0 0 0 11.629 28.071 5.986 5.986 0 0 1 -.458 6.7l-16.1 20.626 31.179 31.189 20.622-16.111a6.012 6.012 0 0 1 6.709-.463 114.285 114.285 0 0 0 28.071 11.635 6.006 6.006 0 0 1 4.411 5.066l3.189 25.967h16.049v-56.481a86.067 86.067 0 0 1 0-171.714v-56.472h-16.05l-3.189 25.962a6 6 0 0 1 -4.411 5.063 114.662 114.662 0 0 0 -28.071 11.634 6 6 0 0 1 -6.709-.463l-20.622-16.1-31.179 31.183 16.1 20.622a5.99 5.99 0 0 1 .458 6.7 115.011 115.011 0 0 0 -11.627 28.07 5.994 5.994 0 0 1 -5.072 4.415l-25.957 3.19zm-1.519 56.009 22.069 2.713a126.557 126.557 0 0 0 9.738 23.514l-13.691 17.531a11.945 11.945 0 0 0 .972 15.781l31.27 31.269a11.938 11.938 0 0 0 15.78.967l17.532-13.686a126.034 126.034 0 0 0 23.518 9.742l2.713 22.07a11.93 11.93 0 0 0 11.836 10.478h22.112a5.992 5.992 0 0 0 6-6v-68.267a6 6 0 0 0 -6-6 74.067 74.067 0 0 1 0-148.134 6 6 0 0 0 6-6v-68.269a6 6 0 0 0 -6-6h-22.112a11.937 11.937 0 0 0 -11.836 10.482l-2.713 22.065a125.869 125.869 0 0 0 -23.518 9.752l-17.532-13.7a11.944 11.944 0 0 0 -15.78.968l-31.27 31.269a11.946 11.946 0 0 0 -.972 15.781l13.691 17.538a126.632 126.632 0 0 0 -9.738 23.513l-22.069 2.713a11.95 11.95 0 0 0 -10.483 11.846v44.22a11.947 11.947 0 0 0 10.483 11.846zm-75.603 118.044 20.791 2.02 1.713 25.7a6 6 0 0 0 5.1 5.538l8.634 1.274-7.549 11.618a6 6 0 0 0 2.982 8.911l17.748 6.445-4.591 32.114a6.113 6.113 0 0 0 .194 2.576c2.939 9.794 8.836 16.663 17.508 20.4 17.824 7.68 46.89 1.528 88.77-18.806 9.313 23.844 15.493 43.843 18.413 59.52a6 6 0 0 0 5.9 4.9h224.059a6 6 0 0 0 3.817-10.629c-17.777-14.649-33.279-54.632-46.088-118.846a353.8 353.8 0 0 0 59.081-191.564 192.241 192.241 0 0 0 -89.251-161.8c-65.441-41.518-161.75-38.351-234.22 7.693-60.7 38.578-90.708 98.39-82.339 164.1a5.789 5.789 0 0 0 .339 1.349c15.352 40.885 12.46 55.618 9.129 60.836-23.438 24.291-37.279 46.871-39.002 63.605a21.013 21.013 0 0 0 18.862 23.046z" fill="url(#GradientFill_1)" fill-rule="evenodd"/></svg>